# xmcd CD database file
#
# Track frame offsets:
#	150
#	17232
#	35322
#	48975
#	71382
#	90212
#	102442
#	131852
#	149552
#	177020
#	191530
#	217505
#	257715
#	286500
#
# Disc length: 4004 seconds
#
# Revision: 0
# Processed by: cddbd v1.5.1PL0 Copyright (c) Steve Scherf et al.
# Submitted via: CDex 1.50
#
DISCID=b90fa20e
DTITLE=Benkö Dixiland Band - &Star Guest
DYEAR=1900
DGENRE=Jazz
TTITLE0=Royal Garden Blues
TTITLE1=Ain`t she sweet
TTITLE2=bel Ami
TTITLE3=Tin Roof Blues
TTITLE4=Someday youl`ll be sorry
TTITLE5=Bye Bye Blues
TTITLE6=Babel
TTITLE7=Stranger on the shore
TTITLE8=Carry me to old Vorginia
TTITLE9=Creole Jazz
TTITLE10=Shining Stocking
TTITLE11=Sheik of Araby
TTITLE12=When the Saints
TTITLE13=One more Saints
EXTD=
EXTT0=
EXTT1=
EXTT2=
EXTT3=
EXTT4=
EXTT5=
EXTT6=
EXTT7=
EXTT8=
EXTT9=
EXTT10=
EXTT11=
EXTT12=
EXTT13=
PLAYORDER=
